<mxfile host="app.diagrams.net" modified="2021-04-25T12:07:19.231Z" agent="5.0 (Windows NT 10.0; Win64; x64) AppleWebKit/537.36 (KHTML, like Gecko) Chrome/90.0.4430.85 Safari/537.36" etag="NzXyPTH9PmlA6y3tY5ZG" version="14.6.6" type="github">
  <diagram id="hQQ_x8fCQWNrwbGWWN2M" name="Page-1">
    <mxGraphModel dx="1422" dy="772" grid="1" gridSize="10" guides="1" tooltips="1" connect="1" arrows="1" fold="1" page="1" pageScale="1" pageWidth="827" pageHeight="1169" math="0" shadow="0">
      <root>
        <mxCell id="0" />
        <mxCell id="1" parent="0" />
        <mxCell id="3vjqqXEN2eIE0fsEKRjG-1" value="" style="rounded=0;whiteSpace=wrap;html=1;" vertex="1" parent="1">
          <mxGeometry x="40" width="780" height="400" as="geometry" />
        </mxCell>
        <mxCell id="3vjqqXEN2eIE0fsEKRjG-3" value="" style="shape=table;html=1;whiteSpace=wrap;startSize=0;container=1;collapsible=0;childLayout=tableLayout;" vertex="1" parent="1">
          <mxGeometry x="50" y="90" width="760" height="300" as="geometry" />
        </mxCell>
        <mxCell id="3vjqqXEN2eIE0fsEKRjG-4" value="" style="shape=partialRectangle;html=1;whiteSpace=wrap;collapsible=0;dropTarget=0;pointerEvents=0;fillColor=none;top=0;left=0;bottom=0;right=0;points=[[0,0.5],[1,0.5]];portConstraint=eastwest;" vertex="1" parent="3vjqqXEN2eIE0fsEKRjG-3">
          <mxGeometry width="760" height="99" as="geometry" />
        </mxCell>
        <mxCell id="3vjqqXEN2eIE0fsEKRjG-5" value="" style="shape=partialRectangle;html=1;whiteSpace=wrap;connectable=0;fillColor=none;top=0;left=0;bottom=0;right=0;overflow=hidden;" vertex="1" parent="3vjqqXEN2eIE0fsEKRjG-4">
          <mxGeometry width="253" height="99" as="geometry" />
        </mxCell>
        <mxCell id="3vjqqXEN2eIE0fsEKRjG-6" value="" style="shape=partialRectangle;html=1;whiteSpace=wrap;connectable=0;fillColor=none;top=0;left=0;bottom=0;right=0;overflow=hidden;" vertex="1" parent="3vjqqXEN2eIE0fsEKRjG-4">
          <mxGeometry x="253" width="254" height="99" as="geometry" />
        </mxCell>
        <mxCell id="3vjqqXEN2eIE0fsEKRjG-7" value="" style="shape=partialRectangle;html=1;whiteSpace=wrap;connectable=0;fillColor=none;top=0;left=0;bottom=0;right=0;overflow=hidden;" vertex="1" parent="3vjqqXEN2eIE0fsEKRjG-4">
          <mxGeometry x="507" width="253" height="99" as="geometry" />
        </mxCell>
        <mxCell id="3vjqqXEN2eIE0fsEKRjG-8" value="" style="shape=partialRectangle;html=1;whiteSpace=wrap;collapsible=0;dropTarget=0;pointerEvents=0;fillColor=none;top=0;left=0;bottom=0;right=0;points=[[0,0.5],[1,0.5]];portConstraint=eastwest;" vertex="1" parent="3vjqqXEN2eIE0fsEKRjG-3">
          <mxGeometry y="99" width="760" height="102" as="geometry" />
        </mxCell>
        <mxCell id="3vjqqXEN2eIE0fsEKRjG-9" value="" style="shape=partialRectangle;html=1;whiteSpace=wrap;connectable=0;fillColor=none;top=0;left=0;bottom=0;right=0;overflow=hidden;" vertex="1" parent="3vjqqXEN2eIE0fsEKRjG-8">
          <mxGeometry width="253" height="102" as="geometry" />
        </mxCell>
        <mxCell id="3vjqqXEN2eIE0fsEKRjG-10" value="" style="shape=partialRectangle;html=1;whiteSpace=wrap;connectable=0;fillColor=none;top=0;left=0;bottom=0;right=0;overflow=hidden;" vertex="1" parent="3vjqqXEN2eIE0fsEKRjG-8">
          <mxGeometry x="253" width="254" height="102" as="geometry" />
        </mxCell>
        <mxCell id="3vjqqXEN2eIE0fsEKRjG-11" value="" style="shape=partialRectangle;html=1;whiteSpace=wrap;connectable=0;fillColor=none;top=0;left=0;bottom=0;right=0;overflow=hidden;" vertex="1" parent="3vjqqXEN2eIE0fsEKRjG-8">
          <mxGeometry x="507" width="253" height="102" as="geometry" />
        </mxCell>
        <mxCell id="3vjqqXEN2eIE0fsEKRjG-12" value="" style="shape=partialRectangle;html=1;whiteSpace=wrap;collapsible=0;dropTarget=0;pointerEvents=0;fillColor=none;top=0;left=0;bottom=0;right=0;points=[[0,0.5],[1,0.5]];portConstraint=eastwest;" vertex="1" parent="3vjqqXEN2eIE0fsEKRjG-3">
          <mxGeometry y="201" width="760" height="99" as="geometry" />
        </mxCell>
        <mxCell id="3vjqqXEN2eIE0fsEKRjG-13" value="" style="shape=partialRectangle;html=1;whiteSpace=wrap;connectable=0;fillColor=none;top=0;left=0;bottom=0;right=0;overflow=hidden;" vertex="1" parent="3vjqqXEN2eIE0fsEKRjG-12">
          <mxGeometry width="253" height="99" as="geometry" />
        </mxCell>
        <mxCell id="3vjqqXEN2eIE0fsEKRjG-14" value="" style="shape=partialRectangle;html=1;whiteSpace=wrap;connectable=0;fillColor=none;top=0;left=0;bottom=0;right=0;overflow=hidden;" vertex="1" parent="3vjqqXEN2eIE0fsEKRjG-12">
          <mxGeometry x="253" width="254" height="99" as="geometry" />
        </mxCell>
        <mxCell id="3vjqqXEN2eIE0fsEKRjG-15" value="" style="shape=partialRectangle;html=1;whiteSpace=wrap;connectable=0;fillColor=none;top=0;left=0;bottom=0;right=0;overflow=hidden;" vertex="1" parent="3vjqqXEN2eIE0fsEKRjG-12">
          <mxGeometry x="507" width="253" height="99" as="geometry" />
        </mxCell>
        <mxCell id="3vjqqXEN2eIE0fsEKRjG-16" value="" style="rounded=0;whiteSpace=wrap;html=1;" vertex="1" parent="1">
          <mxGeometry x="50" y="10" width="760" height="60" as="geometry" />
        </mxCell>
        <mxCell id="3vjqqXEN2eIE0fsEKRjG-17" value="Кнопка" style="rounded=0;whiteSpace=wrap;html=1;" vertex="1" parent="1">
          <mxGeometry x="530" y="20" width="90" height="40" as="geometry" />
        </mxCell>
        <mxCell id="3vjqqXEN2eIE0fsEKRjG-18" value="Режим просмотра" style="rounded=0;whiteSpace=wrap;html=1;" vertex="1" parent="1">
          <mxGeometry x="60" y="20" width="80" height="40" as="geometry" />
        </mxCell>
        <mxCell id="3vjqqXEN2eIE0fsEKRjG-19" value="&lt;span&gt;Режим просмотра&lt;/span&gt;" style="rounded=0;whiteSpace=wrap;html=1;" vertex="1" parent="1">
          <mxGeometry x="150" y="20" width="80" height="40" as="geometry" />
        </mxCell>
        <mxCell id="3vjqqXEN2eIE0fsEKRjG-20" value="&lt;span&gt;Режим просмотра&lt;/span&gt;" style="rounded=0;whiteSpace=wrap;html=1;" vertex="1" parent="1">
          <mxGeometry x="240" y="20" width="80" height="40" as="geometry" />
        </mxCell>
        <mxCell id="3vjqqXEN2eIE0fsEKRjG-21" value="Календарь" style="rounded=0;whiteSpace=wrap;html=1;" vertex="1" parent="1">
          <mxGeometry x="330" y="20" width="80" height="40" as="geometry" />
        </mxCell>
        <mxCell id="3vjqqXEN2eIE0fsEKRjG-22" value="Выпадающий список" style="rounded=0;whiteSpace=wrap;html=1;" vertex="1" parent="1">
          <mxGeometry x="420" y="20" width="90" height="40" as="geometry" />
        </mxCell>
      </root>
    </mxGraphModel>
  </diagram>
</mxfile>
